<svg xmlns="http://www.w3.org/2000/svg" width="22.186" height="15.464" viewBox="0 0 22.186 15.464"><defs><style>.a{fill:#f2ba30;stroke:#f2ba30;stroke-width:0.5px;}</style></defs><path class="a" d="M3.259,8A2.27,2.27,0,0,0,1,10.267V20.7a2.27,2.27,0,0,0,2.259,2.267H20.427A2.27,2.27,0,0,0,22.686,20.7V10.267A2.27,2.27,0,0,0,20.427,8Zm0,.907H7.777v1.672a3.033,3.033,0,0,1,.452.262,3.033,3.033,0,0,1,.452-.262V8.907H20.427a1.351,1.351,0,0,1,1.355,1.36V14.8H12.891a3.207,3.207,0,0,1-.655.907h9.546V20.7a1.351,1.351,0,0,1-1.355,1.36H8.68V17.65L8.229,17.2l-.452.446v4.407H3.259A1.351,1.351,0,0,1,1.9,20.7V15.709H4.223a3.178,3.178,0,0,1-.656-.907H1.9V10.267A1.351,1.351,0,0,1,3.259,8.907Zm3.162,2.267a2,2,0,0,0-.231.012c-.074.007-.15.019-.222.034a2.267,2.267,0,0,0,.454,4.489h.743L5.2,17.652l.635.648,2.393-2.37,2.393,2.37.635-.648L9.293,15.709h.743A2.258,2.258,0,0,0,12.249,13.9a2.269,2.269,0,0,0-1.759-2.676,2.251,2.251,0,0,0-.454-.046,2.1,2.1,0,0,0-.259.016c-.019,0-.039.007-.06.011-.056.007-.111.018-.166.03a2.137,2.137,0,0,0-.348.108c-.035.014-.071.032-.106.048a2.242,2.242,0,0,0-.256.142,1.779,1.779,0,0,0-.152.1c-.055.043-.108.087-.159.135a1.555,1.555,0,0,0-.136.129,2.237,2.237,0,0,0-.166.2,2.237,2.237,0,0,0-.166-.2,1.555,1.555,0,0,0-.136-.129c-.051-.048-.1-.092-.159-.135a1.778,1.778,0,0,0-.152-.1,2.242,2.242,0,0,0-.256-.142c-.035-.016-.071-.034-.106-.048a2.137,2.137,0,0,0-.348-.108c-.055-.012-.109-.023-.166-.03-.021,0-.041-.009-.06-.011A2.1,2.1,0,0,0,6.421,11.174Zm0,.907a1.268,1.268,0,0,1,.274.028s0,0,0,0a1.361,1.361,0,0,1,1.08,1.332V14.8H6.421a1.268,1.268,0,0,1-.274-.028,1.358,1.358,0,0,1-1.054-1.056s0,0,0,0a1.349,1.349,0,0,1,0-.549A1.358,1.358,0,0,1,6.146,12.11,1.3,1.3,0,0,1,6.421,12.081Zm3.614,0a1.268,1.268,0,0,1,.274.028s0,0,0,0a1.36,1.36,0,0,1,1.052,1.056s0,0,0,0a1.349,1.349,0,0,1,0,.549s0,0,0,0A1.358,1.358,0,0,1,10.036,14.8H8.68v-1.36a1.31,1.31,0,0,1,.028-.276A1.36,1.36,0,0,1,9.76,12.11,1.3,1.3,0,0,1,10.036,12.081Zm4.97,7.255a.453.453,0,1,0,.452.453A.453.453,0,0,0,15.005,19.337Zm1.355,0a.453.453,0,1,0,.452.453A.453.453,0,0,0,16.361,19.337Zm1.355,0a.453.453,0,1,0,.452.453A.453.453,0,0,0,17.716,19.337Zm1.355,0a.453.453,0,1,0,.452.453A.453.453,0,0,0,19.071,19.337Z" transform="translate(-0.75 -7.75)"/></svg>