<svg xmlns="http://www.w3.org/2000/svg" width="9.061" height="9.062" viewBox="0 0 9.061 9.062">
  <path id="close_window" d="M15.948,14.895l-1.055,1.052a.5.5,0,0,1-.7,0l-2.632-2.632L8.928,15.947a.493.493,0,0,1-.7,0L7.174,14.895a.5.5,0,0,1,0-.7L9.806,11.56,7.176,8.931a.5.5,0,0,1,0-.7L8.229,7.176a.494.494,0,0,1,.7,0l2.629,2.629,2.632-2.629a.49.49,0,0,1,.7,0l1.055,1.049a.5.5,0,0,1,0,.705L13.315,11.56l2.632,2.632A.5.5,0,0,1,15.948,14.895Z" transform="translate(-7.031 -7.029)" fill="#3b3363" opacity="0.8"/>
</svg>
