<svg xmlns="http://www.w3.org/2000/svg" width="18" height="18" viewBox="0 0 18 18"><defs><style>.a{fill:#f2ba30;}</style></defs><path class="a" d="M9,3A2.015,2.015,0,0,0,7,5v9a1,1,0,1,0,2,0V11h8a2.015,2.015,0,0,0,2-2V5a2.015,2.015,0,0,0-2-2ZM9,5h8V9H9V5ZM3.984,12.986A1,1,0,0,0,3,14v4a3.015,3.015,0,0,0,3,3H18a3.015,3.015,0,0,0,3-3V16a3.015,3.015,0,0,0-3-3H12a1,1,0,1,0,0,2h6a.984.984,0,0,1,1,1v2a.984.984,0,0,1-1,1H6a.984.984,0,0,1-1-1V14a1,1,0,0,0-1.016-1.014Z" transform="translate(-3 -3)"/></svg>