<svg xmlns="http://www.w3.org/2000/svg" width="21.403" height="18.5" viewBox="0 0 21.403 18.5"><defs><style>.a{fill:#f2ba30;stroke:#f2ba30;stroke-width:0.5px;}</style></defs><path class="a" d="M14.752,16.857a3.772,3.772,0,0,1,3.809,4.018.492.492,0,0,1-.982-.066,2.856,2.856,0,0,0-.8-2.161,2.739,2.739,0,0,0-2.161-.8l-3.716.246a2.81,2.81,0,0,0-1.785.8L1.878,26.13a1.157,1.157,0,0,0-.344.8,1.065,1.065,0,0,0,.344.8l5.8,5.8a1.151,1.151,0,0,0,.819.327,1.112,1.112,0,0,0,.8-.327l7.237-7.22a2.729,2.729,0,0,0,.8-1.785.492.492,0,0,1,.982.066A3.7,3.7,0,0,1,17.219,27L9.982,34.234a2.092,2.092,0,0,1-1.506.622,2.159,2.159,0,0,1-1.506-.622l-5.8-5.8a2.125,2.125,0,0,1,0-3.013l7.253-7.22a3.819,3.819,0,0,1,2.407-1.1l3.717-.246C14.618,16.86,14.685,16.857,14.752,16.857Zm-.791,2.515a2.133,2.133,0,0,1,1.587.766.488.488,0,1,1-.753.622,1.168,1.168,0,0,0-1-.409,1.112,1.112,0,0,0-.769.426,1.124,1.124,0,0,0-.246.835,1.185,1.185,0,0,0,.54.868.481.481,0,0,1,.147.672.486.486,0,0,1-.409.229A.412.412,0,0,1,12.8,23.3a2.108,2.108,0,0,1-.982-1.588A2.108,2.108,0,0,1,13.7,19.385,2.017,2.017,0,0,1,13.961,19.372Zm6.787,1.6a.479.479,0,0,1,.465.234.507.507,0,0,1-.1.639,5.52,5.52,0,0,1-3.782,1.506A5.443,5.443,0,0,1,13.977,22.2a.471.471,0,0,1-.066-.7l.016-.016a.5.5,0,0,1,.655-.049,4.5,4.5,0,0,0,5.861-.311l.016-.016A.474.474,0,0,1,20.749,20.968Zm-1,2.813a.482.482,0,0,1,.338.172,5.413,5.413,0,0,1,1.146,2.079v.033a.487.487,0,0,1-.327.606.405.405,0,0,1-.131.016.487.487,0,0,1-.475-.36v-.033a4.272,4.272,0,0,0-.95-1.7A.477.477,0,0,1,19.4,23.9.47.47,0,0,1,19.746,23.781Zm-12.359.088a.323.323,0,0,1,.172.067l1.261.933a.317.317,0,0,0,.294.049l1.49-.507a.321.321,0,0,1,.409.409l-.507,1.49a.318.318,0,0,0,.049.295l.933,1.261a.33.33,0,0,1-.262.524l-1.572-.017a.35.35,0,0,0-.279.131l-.9,1.277a.319.319,0,0,1-.573-.1l-.458-1.49a.343.343,0,0,0-.213-.213l-1.49-.459a.325.325,0,0,1-.1-.573l1.277-.9a.308.308,0,0,0,.131-.278L7.035,24.2A.325.325,0,0,1,7.387,23.869Z" transform="translate(-0.156 -16.607)"/></svg>