<svg xmlns="http://www.w3.org/2000/svg" width="16.24" height="16.24" viewBox="0 0 16.24 16.24"><defs><style>.a{fill:#f2ba30;}</style></defs><path class="a" d="M12.12,4A8.129,8.129,0,0,0,4,12.12a.609.609,0,1,0,1.218,0A6.9,6.9,0,0,1,17.7,8.06H16.383a.609.609,0,1,0,0,1.218h2.842a.609.609,0,0,0,.609-.609V5.827a.609.609,0,1,0-1.218,0V7.253A8.111,8.111,0,0,0,12.12,4Zm2.221,5.272a.609.609,0,0,0-.419.184L9.456,13.922a.609.609,0,1,0,.861.861l4.466-4.466a.609.609,0,0,0-.442-1.045Zm-4.251.006a.812.812,0,1,0,.812.812A.812.812,0,0,0,10.09,9.278ZM19.621,11.5a.609.609,0,0,0-.6.618A6.9,6.9,0,0,1,6.537,16.18H7.857a.609.609,0,1,0,0-1.218H5.015a.609.609,0,0,0-.609.609v2.842a.609.609,0,1,0,1.218,0V16.987A8.118,8.118,0,0,0,20.24,12.12a.609.609,0,0,0-.618-.618ZM14.15,13.338a.812.812,0,1,0,.812.812A.812.812,0,0,0,14.15,13.338Z" transform="translate(-4 -4)"/></svg>