<svg xmlns="http://www.w3.org/2000/svg" xmlns:xlink="http://www.w3.org/1999/xlink" width="178.8" height="186.43" viewBox="0 0 178.8 186.43"><defs><style>.a,.f{fill:none;}.b{clip-path:url(#c);}.c{fill:#f2ba30;}.d{fill:url(#d);}.e{fill:url(#e);}.f{stroke:#632438;stroke-linecap:round;stroke-linejoin:round;stroke-width:3.79px;}.g{fill:url(#f);}.h{fill:#fff;font-size:11px;font-family:ArialRoundedMTBold, Arial Rounded MT;}.i{filter:url(#a);}</style><filter id="a" x="0" y="0" width="178.8" height="186.43" filterUnits="userSpaceOnUse"><feOffset input="SourceAlpha"/><feGaussianBlur stdDeviation="3" result="b"/><feFlood flood-color="#fe41e2"/><feComposite operator="in" in2="b"/><feComposite in="SourceGraphic"/></filter><clipPath id="c"><path class="a" d="M128.515,56.911c0-22.851-2.964-52.211-41.367-52.211S45.78,34.064,45.78,56.911a41.374,41.374,0,0,0,82.749,0Z" transform="translate(-45.78 -4.7)"/></clipPath><linearGradient id="d" x1="0.536" y1="0.464" x2="0.839" y2="0.025" gradientUnits="objectBoundingBox"><stop offset="0" stop-color="#f2ba30"/><stop offset="1" stop-color="#fece53" stop-opacity="0"/></linearGradient><linearGradient id="e" x1="0.648" y1="5.579" x2="0.078" y2="5.148" gradientUnits="objectBoundingBox"><stop offset="0" stop-color="#f2b868"/><stop offset="1" stop-color="#f2b868" stop-opacity="0"/></linearGradient><linearGradient id="f" x1="-2.044" y1="10.728" x2="1.133" y2="11.592" gradientUnits="objectBoundingBox"><stop offset="0" stop-color="#f2ba30"/><stop offset="1" stop-color="#f2ba30" stop-opacity="0"/></linearGradient></defs><g transform="translate(-35.85 22.509)"><g class="i" transform="matrix(1, 0, 0, 1, 35.85, -22.51)"><path d="M32,0C49.673,0,55.65-2.123,55.65,15.55s-9.127,44.8-26.8,44.8-26-27.127-26-44.8S14.327,0,32,0Z" transform="translate(60.15 63.08)"/></g><g transform="translate(-178.654 -494.973)"><g transform="translate(261.8 494.973)"><g class="b" transform="translate(0)"><path class="c" d="M143.439,46.63H132.166a1.288,1.288,0,0,0-1.285,1.305,6.775,6.775,0,0,1-.024.692,8.019,8.019,0,0,1-16.01-.647h0a1.323,1.323,0,0,0-1.319-1.323H102.023a2.673,2.673,0,0,0-2.673,2.673v77.462a2.673,2.673,0,0,0,2.673,2.669h11.426a1.291,1.291,0,0,0,1.285-1.305,6.65,6.65,0,0,1,.024-.692,8.015,8.015,0,0,1,15.978.658h0a1.3,1.3,0,0,0,1.288,1.323h11.4a2.673,2.673,0,0,0,2.673-2.669V49.3a2.673,2.673,0,0,0-2.662-2.673Zm-31.4,27.387a2.666,2.666,0,0,1-2.659,2.662h-1.336a2.663,2.663,0,0,1,0-5.322h1.336a2.659,2.659,0,0,1,2.659,2.659Zm9.348,0a2.673,2.673,0,0,1-2.663,2.662h-1.336a2.663,2.663,0,0,1,0-5.322h1.336a2.666,2.666,0,0,1,2.662,2.659Zm9.348,0a2.673,2.673,0,0,1-2.659,2.662H126.74a2.663,2.663,0,1,1,0-5.322h1.333a2.666,2.666,0,0,1,2.662,2.659Zm9.348,0a2.659,2.659,0,0,1-2.659,2.662h-1.336a2.663,2.663,0,1,1,0-5.322h1.336a2.662,2.662,0,0,1,2.659,2.659Z" transform="translate(-80.803 -32.113)"/><path class="d" d="M143.439,46.63H132.166a1.288,1.288,0,0,0-1.285,1.305,6.775,6.775,0,0,1-.024.692,8.019,8.019,0,0,1-16.01-.647h0a1.323,1.323,0,0,0-1.319-1.323H102.023a2.673,2.673,0,0,0-2.673,2.673v2.424a205.676,205.676,0,0,1,25.4,20.535,2.645,2.645,0,0,1,1.991-.911h1.333a2.652,2.652,0,0,1,.831,5.193c8.361,9.037,14,18.246,17.208,28.578V49.3A2.673,2.673,0,0,0,143.439,46.63Zm-3.355,27.387a2.659,2.659,0,0,1-2.659,2.663h-1.336a2.663,2.663,0,1,1,0-5.322h1.336A2.662,2.662,0,0,1,140.084,74.017Z" transform="translate(-80.803 -32.113)"/><path class="e" d="M213.235,46.63H206.11a2.634,2.634,0,0,0,.755.142c6.333.429,5.723,3.116,6.357,19.32s2.687,54.652,2.687,54.656V49.3A2.673,2.673,0,0,0,213.235,46.63Z" transform="translate(-150.599 -32.113)"/><path class="f" d="M112.62,87.349v46.2h6.6a12.61,12.61,0,0,1,24.364,0h6.606V87.924m0-9.483V59.9h-6.468a12.613,12.613,0,0,1-24.368,0H112.62V78.112" transform="translate(-89.478 -40.788)"/><path class="g" d="M121.407,198.011l-.107-30.468a.481.481,0,0,1,.935-.149L130,191.222a.485.485,0,0,1-.3.6c-1.156.422-4.383,1.935-7.416,6.447a.481.481,0,0,1-.876-.26Z" transform="translate(-95.153 -110.855)"/><text class="h" transform="translate(30.928 65.933)"><tspan x="0" y="0">10%</tspan></text></g></g></g></g></svg>